<svg width="1024" height="768" viewBox="0 0 1024 768" fill="none" xmlns="http://www.w3.org/2000/svg">
<path d="M330.846 306.561C330.846 350.606 467.954 341.37 467.954 446.51C467.954 560.175 333.687 568.7 303.14 568.7C286.801 568.7 232.099 563.727 198 549.519L206.525 451.483C241.335 472.795 275.434 489.135 304.561 489.135C334.398 489.135 345.054 474.927 345.054 463.56C345.054 408.149 212.208 435.144 212.208 320.058C212.208 229.127 313.086 200 365.656 200C416.094 200 438.827 205.683 469.375 213.498L460.85 311.534C460.85 311.534 406.859 279.565 373.47 279.565C347.895 279.565 330.846 290.221 330.846 306.561Z" fill="#B62C28"/>
<path opacity="0.69" d="M445.221 384.705H234.231C234.231 384.705 166.742 279.565 338.66 279.565H373.47C347.896 279.565 330.846 290.221 330.846 306.561C330.846 339.239 406.149 342.791 445.221 384.705Z" fill="url(#paint0_linear_1_2)"/>
<path d="M694.708 205.115H524.211L517.107 281.839L492.243 563.159H659.188C706.074 563.159 826.133 520.535 826.133 359.983C826.133 287.522 779.957 205.115 694.708 205.115ZM639.297 486.435H600.934L619.405 281.839H659.188C681.921 281.839 723.834 305.992 723.834 368.508C723.834 431.024 688.314 486.435 639.297 486.435Z" fill="#B62C28"/>
<path opacity="0.69" d="M517.107 281.839H619.405L594.541 563.159H492.243L517.107 281.839Z" fill="url(#paint1_linear_1_2)"/>
<defs>
<linearGradient id="paint0_linear_1_2" x1="333.197" y1="279.565" x2="333.197" y2="385.06" gradientUnits="userSpaceOnUse">
<stop offset="0.223" stop-opacity="0.8"/>
<stop offset="0.54" stop-opacity="0.2925"/>
<stop offset="0.768" stop-opacity="0"/>
</linearGradient>
<linearGradient id="paint1_linear_1_2" x1="555.824" y1="281.839" x2="555.824" y2="563.159" gradientUnits="userSpaceOnUse">
<stop offset="0.061" stop-opacity="0.8"/>
<stop offset="0.212" stop-opacity="0"/>
</linearGradient>
</defs>
</svg>
